<?xml version="1.0" encoding="utf-8"?>
<svg width="283" height="283" viewBox="0 0 283 283" fill="none" stroke="none" version="1.1" xmlns:xlink="http://www.w3.org/1999/xlink" xmlns="http://www.w3.org/2000/svg">
  <g style="mix-blend-mode:normal;">
    <path id="Oval Union" d="M141.5 0C63.3517 0 0 63.3517 0 141.5C0 219.648 63.3517 283 141.5 283C219.648 283 283 219.648 283 141.5C283 63.3517 219.648 0 141.5 0ZM20.3298 192.683Q10 168.26 10 141.5Q10 114.74 20.3298 90.3173Q30.3105 66.7205 48.5154 48.5154Q66.7205 30.3105 90.3173 20.3298Q114.74 10 141.5 10Q168.26 10 192.683 20.3298Q216.28 30.3105 234.485 48.5155Q252.69 66.7205 262.67 90.3173Q273 114.74 273 141.5Q273 168.26 262.67 192.683Q252.69 216.28 234.484 234.485Q216.279 252.69 192.683 262.67Q168.26 273 141.5 273Q114.74 273 90.3173 262.67Q66.7205 252.69 48.5154 234.485Q30.3104 216.28 20.3298 192.683ZM145.586 189.324Q147.414 189.921 149.137 189.921Q154.902 189.921 158.488 187.355Q162.074 184.753 162.074 181.554Q162.074 179.269 160.07 177.265Q157.188 174.523 156.238 170.726Q155.324 166.894 155.324 161.832Q155.324 156.066 155.957 149.035Q156.625 141.968 157.469 134.761Q159.051 122.667 159.508 113.316Q166.398 111.312 172.727 111.312Q180.531 111.312 185.91 114.617Q191.324 117.921 191.324 125.128Q191.324 131.738 186.578 135.921Q181.832 140.105 174.168 140.105Q170.16 140.105 168.051 140.527Q165.977 140.949 164.816 142.109Q163.234 143.691 163.234 146.152Q163.234 147.593 163.656 149.105Q164.113 150.617 164.676 152.199Q166.996 157.648 170.371 164.152Q173.746 170.621 178.07 176.457Q182.395 182.292 187.492 186.054Q192.625 189.781 198.215 189.781Q202.996 189.781 205.703 187.917Q208.445 186.019 209.605 183.242Q210.766 180.429 210.766 177.687Q210.766 175.367 210.098 174.593Q209.465 173.785 208.586 173.925Q206.863 174.207 204.578 174.207Q196.07 174.207 187.879 165.734Q185.137 162.851 182.465 159.265Q179.793 155.644 177.508 152.058Q183.836 150.757 189.953 146.644Q196.07 142.531 200.008 136.062Q203.98 129.593 203.98 121.226Q203.98 113.175 200.078 107.41Q196.211 101.644 189.285 98.48Q182.395 95.3159 173.465 95.3159Q167.418 95.3159 160.703 96.8277Q154.023 98.3394 148.117 101.644Q143.652 103.964 141.402 106.777Q139.188 109.554 139.188 114.16Q139.188 116.199 139.68 117.71Q140.207 119.222 141.648 119.222Q142.352 119.222 143.441 118.871Q144.531 118.484 145.375 118.062Q145.832 121.085 145.973 124.39Q146.113 127.695 146.113 130.753Q146.113 139.226 145.164 147.875Q144.215 156.523 143.09 163.695Q142.492 168.019 142 172.554Q141.508 177.089 141.508 179.972Q141.508 184.437 142.633 186.617Q143.793 188.761 145.586 189.324ZM77.9062 185.949Q84.4453 190.343 98.1211 190.343Q104.766 190.343 110.953 189.253Q117.141 188.199 121.605 186.16Q125.508 184.156 127.863 181.343Q130.254 178.531 130.254 175.367Q130.254 172.8 128.742 170.585Q127.23 168.335 125.648 168.335Q124.629 168.335 122.625 169.46Q117.141 172.203 111.867 173.222Q106.629 174.207 101.004 174.207Q91.793 174.207 87.75 171.042Q83.7422 167.878 83.7422 159.968Q83.7422 157.824 84.0234 155.082Q84.3047 152.339 84.9023 149.035Q90.8086 148.894 98.6484 149.035Q106.488 149.175 112.676 149.457Q114.398 149.597 115.418 149.105Q116.438 148.578 117.281 147.734Q119.32 145.695 120.516 142.917Q121.746 140.105 121.746 137.785Q121.746 135.359 120.656 134.796Q119.602 134.199 116.719 134.199Q110.215 134.199 101.848 134.41Q93.5156 134.621 86.9062 135.042Q87.6094 128.714 88.0312 122.949Q88.4883 117.183 88.4883 112.156Q92.0742 111.875 95.5898 111.734Q99.1406 111.593 102.445 111.593Q104.344 111.593 109.09 111.734Q113.836 111.875 120.164 112.296Q123.047 112.437 124.629 111.523Q126.211 110.574 127.793 108.429Q130.816 104.808 130.816 100.484Q130.816 97.0386 127.09 96.4761Q124.629 95.8784 111.375 95.8784Q106.629 95.8784 100.652 96.1245Q94.6758 96.3355 88.9805 96.7573Q83.3203 97.1792 79.418 97.6011Q74.3906 98.1987 71.9297 101.644Q70.6289 103.507 69.8906 106.46Q69.1875 109.414 69.1875 112.437Q69.1875 113.878 69.6094 114.406Q70.0664 114.898 71.1914 114.898Q71.9297 114.898 74.0742 114.476Q74.6719 118.062 74.8828 122.105Q75.0938 126.113 75.0938 130.437Q75.0938 137.082 74.4961 142.636Q73.9336 148.156 72.8086 155.222Q72.0703 160.109 71.7188 163.589Q71.3672 167.035 71.3672 169.46Q71.3672 181.554 77.9062 185.949Z" />
    <path d="M86.2218 271.795C69.3729 264.638 54.1972 254.308 41.4444 241.556C15.8379 215.949 0 180.574 0 141.5C0 121.963 3.9595 103.351 11.1198 86.4218C32.6006 35.6353 82.8888 0 141.5 0C160.912 0 179.411 3.909 196.253 10.9828C196.465 11.0718 196.677 11.1612 196.888 11.2512C213.624 18.3771 228.705 28.6342 241.398 41.2868C241.504 41.3929 241.61 41.499 241.716 41.6054C254.314 54.2436 264.537 69.2508 271.659 85.9007C271.814 86.263 271.967 86.626 272.119 86.9899C279.128 103.767 283 122.181 283 141.5C283 160.826 279.126 179.247 272.111 196.029C271.964 196.382 271.815 196.734 271.664 197.086C264.599 213.608 254.481 228.513 242.018 241.091C241.711 241.401 241.401 241.711 241.091 242.018C228.455 254.538 213.471 264.692 196.858 271.761C196.66 271.846 196.462 271.93 196.263 272.013C179.424 279.087 160.929 282.997 141.521 283L141.5 283C122.055 283 103.526 279.078 86.6614 271.981C86.5148 271.92 86.3682 271.858 86.2218 271.795ZM20.3298 90.3173Q10 114.74 10 141.5Q10 168.26 20.3298 192.683Q20.9536 194.157 21.6095 195.611Q31.4482 217.417 48.5155 234.485Q50.791 236.76 53.151 238.907Q69.6702 253.937 90.3173 262.67Q114.74 273 141.5 273Q168.26 273 192.683 262.67Q216.28 252.689 234.485 234.485Q236.76 232.209 238.907 229.849Q253.937 213.33 262.67 192.683Q262.83 192.305 262.99 191.919Q273 167.842 273 141.5Q273 114.74 262.67 90.3173Q252.69 66.7205 234.485 48.5155Q216.28 30.3105 192.683 20.3298Q168.26 10 141.5 10Q114.74 10 90.3173 20.3298Q66.7205 30.3105 48.5154 48.5154Q30.3105 66.7205 20.3298 90.3173ZM127.793 108.429Q130.816 104.808 130.816 100.484Q130.816 97.0386 127.09 96.4761Q124.629 95.8784 111.375 95.8784Q106.629 95.8784 100.652 96.1245Q94.6758 96.3355 88.9805 96.7573Q83.3203 97.1792 79.418 97.6011Q74.3906 98.1987 71.9297 101.644Q70.6289 103.507 69.8906 106.46Q69.1875 109.414 69.1875 112.437Q69.1875 113.878 69.6094 114.406Q70.0664 114.898 71.1914 114.898Q71.4221 114.898 71.7902 114.857Q72.5998 114.766 74.0742 114.476Q74.6719 118.062 74.8828 122.105Q74.9445 123.278 74.9882 124.478Q75.0938 127.378 75.0938 130.437Q75.0938 137.082 74.4961 142.636Q73.9336 148.156 72.8086 155.222Q72.0703 160.109 71.7188 163.589Q71.3672 167.035 71.3672 169.46Q71.3672 181.554 77.9062 185.949Q84.4453 190.343 98.1211 190.343Q104.766 190.343 110.953 189.253Q117.141 188.199 121.605 186.16Q125.508 184.156 127.863 181.343Q130.254 178.531 130.254 175.367Q130.254 172.8 128.742 170.585Q127.23 168.335 125.648 168.335Q124.629 168.335 122.625 169.46Q117.141 172.203 111.867 173.222Q106.629 174.207 101.004 174.207Q91.793 174.207 87.75 171.042Q83.7422 167.878 83.7422 159.968Q83.7422 157.824 84.0234 155.082Q84.3047 152.339 84.9023 149.035Q90.8086 148.894 98.6484 149.035Q106.488 149.175 112.676 149.457Q114.398 149.597 115.418 149.105Q116.438 148.578 117.281 147.734Q119.32 145.695 120.516 142.917Q121.746 140.105 121.746 137.785Q121.746 135.359 120.656 134.796Q119.602 134.199 116.719 134.199Q110.215 134.199 101.848 134.41Q99.3564 134.473 97.0186 134.555Q91.5391 134.747 86.9062 135.042Q87.4875 129.811 87.8765 124.965Q87.9581 123.948 88.0312 122.949Q88.4883 117.183 88.4883 112.156Q92.0742 111.875 95.5898 111.734Q99.1406 111.593 102.445 111.593Q104.344 111.593 109.09 111.734Q113.836 111.875 120.164 112.296Q123.047 112.437 124.629 111.523Q126.211 110.574 127.793 108.429ZM140.398 118.814Q140.9 119.222 141.648 119.222Q142.352 119.222 143.441 118.871Q144.531 118.484 145.375 118.062Q145.832 121.085 145.973 124.39Q146.063 126.504 146.095 128.517Q146.113 129.651 146.113 130.753Q146.113 139.226 145.164 147.875Q144.215 156.523 143.09 163.695Q142.492 168.019 142 172.554Q141.508 177.089 141.508 179.972Q141.508 184.437 142.633 186.617Q143.793 188.761 145.586 189.324Q147.414 189.921 149.137 189.921Q154.902 189.921 158.488 187.355Q162.074 184.753 162.074 181.554Q162.074 179.269 160.07 177.265Q157.188 174.523 156.238 170.726Q155.324 166.894 155.324 161.832Q155.324 159.104 155.466 156.094Q155.623 152.741 155.957 149.035Q156.596 142.28 157.394 135.399Q157.428 135.106 157.469 134.761Q159.051 122.667 159.508 113.316Q166.398 111.312 172.727 111.312Q180.531 111.312 185.91 114.617Q191.324 117.921 191.324 125.128Q191.324 131.738 186.578 135.921Q181.832 140.105 174.168 140.105Q170.16 140.105 168.051 140.527Q167.401 140.659 166.842 140.863Q165.613 141.312 164.816 142.109Q163.709 143.216 163.377 144.754Q163.234 145.413 163.234 146.152Q163.234 147.449 163.576 148.804Q163.614 148.954 163.656 149.105Q164.113 150.617 164.676 152.199Q165.11 153.219 165.581 154.276Q167.628 158.865 170.371 164.152Q173.746 170.621 178.07 176.457Q182.395 182.292 187.492 186.054Q192.625 189.781 198.215 189.781Q202.996 189.781 205.703 187.917Q208.1 186.258 209.288 183.928Q209.294 183.916 209.3 183.904Q209.464 183.58 209.605 183.242Q210.766 180.429 210.766 177.687Q210.766 175.367 210.098 174.593Q209.465 173.785 208.586 173.925Q206.863 174.207 204.578 174.207Q196.07 174.207 187.879 165.734Q185.73 163.474 183.624 160.783Q183.043 160.041 182.465 159.265Q179.793 155.644 177.508 152.058Q182.351 151.063 187.07 148.42Q188.518 147.609 189.953 146.644Q196.07 142.531 200.008 136.062Q203.98 129.593 203.98 121.226Q203.98 113.175 200.078 107.41Q196.211 101.644 189.285 98.48Q182.395 95.3159 173.465 95.3159Q167.418 95.3159 160.703 96.8277Q154.023 98.3394 148.117 101.644Q143.652 103.964 141.402 106.777Q139.188 109.554 139.188 114.16Q139.188 116.199 139.68 117.71Q139.933 118.437 140.398 118.814Z" fill-rule="evenodd" style="fill:#000000;fill-rule:evenodd;" />
  </g>
</svg>